<svg xmlns="http://www.w3.org/2000/svg" width="12.219" height="15" viewBox="0 0 12.219 15">
  <g id="icon" transform="translate(-71 -746)">
    <path id="Vector" d="M6.2,4.31c-.593,0-1.51-.674-2.476-.649a3.655,3.655,0,0,0-3.1,1.883c-1.323,2.3-.341,5.69.95,7.556.633.909,1.38,1.932,2.37,1.9.95-.041,1.307-.617,2.459-.617s1.469.617,2.476.593c1.023-.016,1.672-.925,2.3-1.842A8.157,8.157,0,0,0,12.219,11a3.311,3.311,0,0,1-2.013-3.036,3.367,3.367,0,0,1,1.623-2.849A3.514,3.514,0,0,0,9.086,3.628c-1.25-.1-2.3.682-2.881.682Zm2.11-1.915A3.281,3.281,0,0,0,9.094,0,3.375,3.375,0,0,0,6.886,1.136a3.138,3.138,0,0,0-.8,2.321A2.8,2.8,0,0,0,8.315,2.394Z" transform="translate(71 746)"/>
  </g>
</svg>
