<svg xmlns="http://www.w3.org/2000/svg" width="35" height="35" viewBox="0 0 35 35">
  <g id="arrow" transform="translate(-25 -44)">
    <circle id="Ellipse_4" data-name="Ellipse 4" cx="17.5" cy="17.5" r="17.5" transform="translate(25 44)"/>
    <path id="Vector" d="M10.16,5.993V5.639a21.586,21.586,0,0,0-.24-3.451,10.054,10.054,0,0,0-.26-1.064,1.9,1.9,0,0,0-.81-.9A2,2,0,0,0,7.94,0a4,4,0,0,0-.95.242L6.74.336A22.281,22.281,0,0,0,.85,4.36l-.09.09-.38.42A1.831,1.831,0,0,0,0,6.008,1.778,1.778,0,0,0,.35,7.072a3.676,3.676,0,0,0,.28.334l.38.4A22.445,22.445,0,0,0,6.6,11.592,4.994,4.994,0,0,0,7.94,12H8a1.819,1.819,0,0,0,1.6-.991,4.1,4.1,0,0,0,.24-.784l.11-.544A27.4,27.4,0,0,0,10.16,5.993ZM16.5,7.518a1.518,1.518,0,0,0,0-3.035l-3.7.327a1.191,1.191,0,0,0,0,2.381Z" transform="translate(33 56)" fill="#fff"/>
  </g>
</svg>
