<svg xmlns="http://www.w3.org/2000/svg" width="21.638" height="25" viewBox="0 0 21.638 25">
  <g id="icon" transform="translate(-52 -351)">
    <path id="Vector" d="M21.634,24.178l-1.9-18.094a.744.744,0,0,0-.74-.666H15.422V4.6a4.6,4.6,0,0,0-9.207,0v.814H2.644a.744.744,0,0,0-.74.666L0,24.178A.744.744,0,0,0,.744,25H20.893a.744.744,0,0,0,.74-.822ZM7.7,4.6a3.115,3.115,0,0,1,6.23,0v.814H7.7ZM1.57,23.512,3.314,6.906h2.9v1.64a.744.744,0,0,0,1.488,0V6.906h6.23v1.64a.744.744,0,1,0,1.488,0V6.906h2.9l1.744,16.606Z" transform="translate(52 351)" fill="#fff"/>
  </g>
</svg>
