<svg xmlns="http://www.w3.org/2000/svg" width="27.583" height="25" viewBox="0 0 27.583 25">
  <g id="Group" transform="translate(-49 -266)">
    <path id="Vector" d="M27.434,6.693l-.02-.02L21.721,1.613a.541.541,0,0,0-.179-.108L17.423.033A.541.541,0,0,0,16.7.514a2.969,2.969,0,0,1-2.923,2.906A2.979,2.979,0,0,1,10.836.514a.541.541,0,0,0-.72-.482L6,1.521a.541.541,0,0,0-.179.108L.168,6.674a.541.541,0,0,0-.02.765l.02.02,4.5,4.552V24.459A.541.541,0,0,0,5.213,25H22.37a.541.541,0,0,0,.541-.541V12.01l4.5-4.552A.541.541,0,0,0,27.434,6.693ZM22.9,10.468V7.956a.541.541,0,1,0-1.082,0V23.89H5.732V7.956a.541.541,0,0,0-1.082,0v2.517L1.321,7.1,6.474,2.49,9.862,1.267a3.989,3.989,0,0,0,7.832,0L21.082,2.49,26.218,7.1Z" transform="translate(49 266)" fill="#fff"/>
  </g>
</svg>
