<svg xmlns="http://www.w3.org/2000/svg" width="14.4" height="16" viewBox="0 0 14.4 16">
  <path id="Vector" d="M13.83,2.594a.578.578,0,0,1,.57.587v.3a.584.584,0,0,1-.57.587H.571A.584.584,0,0,1,0,3.486v-.3a.579.579,0,0,1,.571-.587H2.9A1.026,1.026,0,0,0,3.9,1.782l.122-.546A1.59,1.59,0,0,1,5.548,0h3.3a1.589,1.589,0,0,1,1.522,1.2l.131.584a1.024,1.024,0,0,0,.993.813ZM12.645,13.707c.244-2.27.67-7.662.67-7.716a.6.6,0,0,0-.145-.446.581.581,0,0,0-.419-.187H1.655a.565.565,0,0,0-.419.187.633.633,0,0,0-.152.446c0,.01.017.2.042.517.114,1.411.43,5.339.635,7.2a2.333,2.333,0,0,0,2.345,2.262c1,.023,2.039.031,3.1.031,1,0,2.009-.008,3.044-.031A2.334,2.334,0,0,0,12.645,13.707Z" fill="#fff"/>
</svg>
