<svg xmlns="http://www.w3.org/2000/svg" width="24.991" height="25" viewBox="0 0 24.991 25">
  <g id="icon" transform="translate(-50 -521)">
    <path id="Vector" d="M21.321,3.645A12.5,12.5,0,0,0,.712,16.665l.019.052a4.432,4.432,0,0,0,7.306,1.627l.692-.693a4.825,4.825,0,0,0,6.052-.62L17.5,14.315a.976.976,0,0,0,0-1.381l-.9-.9L19.281,9.35A.976.976,0,0,0,17.9,7.969l-2.684,2.684-.869-.869L17.07,7.061A.976.976,0,1,0,15.689,5.68L12.966,8.4l-.9-.9a.976.976,0,0,0-1.381,0L7.969,10.218a4.826,4.826,0,0,0-.62,6.052l-.693.693a2.479,2.479,0,0,1-4.086-.9l-.015-.043a10.546,10.546,0,1,1,6.429,6.429.976.976,0,0,0-.65,1.842A12.5,12.5,0,0,0,21.321,3.645ZM9.349,11.6l2.025-2.025,4.051,4.051L13.4,15.65A2.864,2.864,0,0,1,9.349,11.6Z" transform="translate(50 521)" fill="#fff"/>
  </g>
</svg>
