<svg xmlns="http://www.w3.org/2000/svg" width="15.3" height="15" viewBox="0 0 15.3 15">
  <g id="eye" transform="translate(-335 -543)">
    <path id="Vector" d="M2.361,3.211.15,1l1-1,14,14-1,1-2.34-2.34A7.781,7.781,0,0,1,0,7.5,7.765,7.765,0,0,1,2.362,3.211ZM9.6,10.45,8.564,9.415A2.121,2.121,0,0,1,5.735,6.586L4.7,5.551a3.535,3.535,0,0,0,4.9,4.9ZM4.8,1.674A7.785,7.785,0,0,1,15.3,7.5a7.74,7.74,0,0,1-1.423,3.247L11.148,8.018A3.535,3.535,0,0,0,7.132,4L4.8,1.674Z" transform="translate(335 543)"/>
  </g>
</svg>
