<svg xmlns="http://www.w3.org/2000/svg" width="50" height="50" viewBox="0 0 50 50">
  <g id="Group_1" data-name="Group 1" transform="translate(-300 -205)">
    <g id="filtter">
      <circle id="Ellipse_7" data-name="Ellipse 7" cx="25" cy="25" r="25" transform="translate(300 205)"/>
      <g id="icon">
        <path id="Vector" d="M7.275,0H1.357A1.346,1.346,0,0,0,0,1.333,1.346,1.346,0,0,0,1.357,2.666H7.275A1.346,1.346,0,0,0,8.632,1.333,1.346,1.346,0,0,0,7.275,0Z" transform="translate(316 233.661)" fill="#fff" opacity="0.4"/>
        <path id="Vector-2" data-name="Vector" d="M8.631,1.332A1.345,1.345,0,0,0,7.275,0H1.357A1.346,1.346,0,0,0,0,1.332,1.346,1.346,0,0,0,1.357,2.665H7.275A1.346,1.346,0,0,0,8.631,1.332Z" transform="translate(325.369 223.709)" fill="#fff" opacity="0.4"/>
        <path id="Vector-3" data-name="Vector" d="M6.19,3.041A3.068,3.068,0,0,1,3.095,6.082,3.069,3.069,0,0,1,0,3.041,3.069,3.069,0,0,1,3.095,0,3.068,3.068,0,0,1,6.19,3.041Z" transform="translate(316 222)" fill="#fff"/>
        <path id="Vector-4" data-name="Vector" d="M6.19,3.042A3.068,3.068,0,0,1,3.1,6.082,3.069,3.069,0,0,1,0,3.042,3.069,3.069,0,0,1,3.1,0,3.068,3.068,0,0,1,6.19,3.042Z" transform="translate(327.81 231.918)" fill="#fff"/>
      </g>
    </g>
  </g>
</svg>
