<svg xmlns="http://www.w3.org/2000/svg" width="14.7" height="15" viewBox="0 0 14.7 15">
  <g id="icon" transform="translate(-70 -681)">
    <path id="Vector" d="M.8,4.133A7.5,7.5,0,0,1,7.5,0a7.2,7.2,0,0,1,5.017,1.954L10.367,4.1A4.053,4.053,0,0,0,7.5,2.983,4.505,4.505,0,0,0,3.3,8.925,4.524,4.524,0,0,0,10.039,11.3a3.45,3.45,0,0,0,1.5-2.264H7.5v-2.9h7.063A8.624,8.624,0,0,1,14.7,7.67a7.31,7.31,0,0,1-2.236,5.512A7.157,7.157,0,0,1,7.5,15,7.5,7.5,0,0,1,.8,4.133Z" transform="translate(70 681)"/>
  </g>
</svg>
