<svg xmlns="http://www.w3.org/2000/svg" width="15.2" height="16" viewBox="0 0 15.2 16">
  <path id="Vector" d="M5.308,15.018V12.573a1.135,1.135,0,0,1,1.138-1.131h2.3a1.143,1.143,0,0,1,.8.331,1.127,1.127,0,0,1,.334.8v2.446a.972.972,0,0,0,.285.694.988.988,0,0,0,.7.288h1.569a2.768,2.768,0,0,0,1.954-.8,2.726,2.726,0,0,0,.81-1.938V6.293a1.978,1.978,0,0,0-.716-1.522L9.147.541A2.479,2.479,0,0,0,5.988.6L.774,4.772A1.981,1.981,0,0,0,0,6.293v6.962A2.755,2.755,0,0,0,2.765,16H4.3a.985.985,0,0,0,.989-.974Z"/>
</svg>
