<svg xmlns="http://www.w3.org/2000/svg" width="80" height="80" viewBox="0 0 80 80">
  <g id="icon" transform="translate(-147 -278)">
    <g id="BG">
      <circle id="Ellipse_25" data-name="Ellipse 25" cx="40" cy="40" r="40" transform="translate(147 278)"/>
    </g>
    <g id="cart">
      <path id="Vector" d="M26.87,13.972,25.717,4.68C25.014,1.364,23.025,0,21.13,0H5.9C3.975,0,1.921,1.269,1.324,4.68L.157,13.972C-.8,20.794,2.716,22.5,7.3,22.5H19.738C24.311,22.5,27.718,20.03,26.87,13.972ZM9.146,7.723a1.365,1.365,0,1,1,1.326-1.365A1.346,1.346,0,0,1,9.146,7.723ZM16.5,6.358a1.326,1.326,0,1,0,1.326-1.364A1.346,1.346,0,0,0,16.5,6.358Z" transform="translate(173 310.5)" fill="#fff"/>
      <path id="Vector-2" data-name="Vector" d="M14.961,7.161A.753.753,0,0,1,14.9,7.5H12.74a.972.972,0,0,1-.065-.339,5.226,5.226,0,0,0-10.452,0,.973.973,0,0,1,0,.339H.015a.973.973,0,0,1,0-.339A7.5,7.5,0,0,1,15,7.161Z" transform="translate(179 303)" fill="#fff" opacity="0.4"/>
    </g>
    <g id="check_mark" data-name="check mark">
      <circle id="Ellipse_26" data-name="Ellipse 26" cx="10" cy="10" r="10" transform="translate(205 279)" fill="#64ba67"/>
      <path id="Vector-3" data-name="Vector" d="M0,2.5,2.5,5l5-5" transform="translate(211 287)" fill="none" stroke="#fff" stroke-linecap="round" stroke-linejoin="round" stroke-width="1.5"/>
    </g>
  </g>
</svg>
