<svg xmlns="http://www.w3.org/2000/svg" width="20" height="28.45" viewBox="0 0 20 28.45">
  <g id="icon" transform="translate(-52 -604)">
    <g id="Group">
      <g id="Group-2" data-name="Group">
        <path id="Vector" d="M11.095,4.568l2.554-2.128h0l.023-.021.005,0,.027-.03,0,0,.021-.027.007-.011.013-.022.008-.016.009-.019.007-.018.007-.018.006-.019,0-.019,0-.019c0-.007,0-.014,0-.022s0-.011,0-.017,0-.019,0-.028,0-.006,0-.01v0c0-.014,0-.027,0-.041v0c0-.012,0-.023-.005-.035s0-.011,0-.016,0-.015-.006-.022l-.006-.019-.007-.018-.009-.02-.008-.016L13.745,1.9l0-.009L12.7.2a.423.423,0,0,0-.36-.2H7.657A.422.422,0,0,0,7.3.2L6.26,1.892l0,.009-.011.019-.008.016-.009.02-.007.018-.006.019c0,.007,0,.015-.006.022l0,.016c0,.012,0,.023-.005.035v0c0,.014,0,.027,0,.041v0s0,.006,0,.01,0,.019,0,.028,0,.011,0,.017,0,.015,0,.022l0,.019,0,.019.006.019.007.018.007.018.009.019.008.016.013.022.007.011.021.027,0,0,.027.03.005,0,.023.021h0L8.905,4.568a10,10,0,1,0,2.189,0Zm-.672-.54V2.535h1.791ZM11.865.845h.241l.519.845H11.02Zm-1.2,0-.67.67L9.33.845Zm-2.777,0h.241l.845.845H7.375Zm-.107,1.69H9.577V4.028ZM10,23.662a9.155,9.155,0,1,1,9.155-9.155A9.165,9.165,0,0,1,10,23.662Z" transform="translate(52 607.943)" fill="#fff"/>
      </g>
    </g>
    <g id="Group-3" data-name="Group">
      <g id="Group-4" data-name="Group">
        <path id="Vector-2" data-name="Vector" d="M15.967,5.075A8.327,8.327,0,0,0,15.2,3.664,8.336,8.336,0,0,0,11.545.653a8.339,8.339,0,0,0-6.469,0A8.333,8.333,0,0,0,.653,5.075a8.324,8.324,0,0,0,.7,7.782A8.295,8.295,0,0,0,8.309,16.62h0a8.3,8.3,0,0,0,6.279-2.868.423.423,0,1,0-.638-.554h0a7.576,7.576,0,0,1-1.143,1.069,7.475,7.475,0,0,1-7.591.839l-.01,0h0a7.47,7.47,0,1,1,9.656-3.214.423.423,0,0,0,.741.406,8.252,8.252,0,0,0,.75-1.894A8.341,8.341,0,0,0,16.62,8.31,8.255,8.255,0,0,0,15.967,5.075Z" transform="translate(53.69 614.141)" fill="#fff"/>
      </g>
    </g>
    <g id="Group-5" data-name="Group">
      <g id="Group-6" data-name="Group">
        <path id="Vector-3" data-name="Vector" d="M.423,0A.423.423,0,0,0,0,.423v1.69a.423.423,0,0,0,.845,0V.423A.423.423,0,0,0,.423,0Z" transform="translate(61.577 604)" fill="#fff"/>
      </g>
    </g>
    <g id="Group-7" data-name="Group">
      <g id="Group-8" data-name="Group">
        <path id="Vector-4" data-name="Vector" d="M1.634,1.675.789.211A.423.423,0,0,0,.057.634L.9,2.1a.423.423,0,0,0,.732-.423Z" transform="translate(57.352 605.132)" fill="#fff"/>
      </g>
    </g>
    <g id="Group-9" data-name="Group">
      <g id="Group-10" data-name="Group">
        <path id="Vector-5" data-name="Vector" d="M1.479.057A.423.423,0,0,0,.9.211L.057,1.675A.423.423,0,1,0,.789,2.1L1.634.634A.423.423,0,0,0,1.479.057Z" transform="translate(64.958 605.132)" fill="#fff"/>
      </g>
    </g>
  </g>
</svg>
