<svg xmlns="http://www.w3.org/2000/svg" width="25" height="25" viewBox="0 0 25 25">
  <g id="icon" transform="translate(-50 -182)">
    <path id="Vector" d="M24.268,19.613c-20.3,0-19.392,0-19.393-.007a13.725,13.725,0,0,1-.2-1.67c9.74-.051-13.549,0,17.972,0a2.258,2.258,0,0,0,2.3-2.314V5.7a1.75,1.75,0,0,0-1.744-1.748l-6.063-.01V2.393A1.564,1.564,0,0,0,15.581.83H14.117a1.564,1.564,0,0,0-1.562,1.562V3.935l-6.5-.011L5.563,1.238A1.507,1.507,0,0,0,4.08,0H.732a.732.732,0,0,0,0,1.465c3.545,0,3.38-.019,3.39.035.795,4.377.289,1.318,2.421,14.962l-1.874.01a1.473,1.473,0,0,0-1.456,1.655l.208,1.661a1.475,1.475,0,0,0,1.461,1.29h1.3a2.693,2.693,0,1,0,4.792,0h6.976a2.693,2.693,0,1,0,4.792,0h1.527a.732.732,0,0,0,0-1.465ZM14.02,2.392a.1.1,0,0,1,.1-.1h1.463a.1.1,0,0,1,.1.1v5.42a.732.732,0,0,0,.732.732H17.5l-2.283,2.284a.518.518,0,0,1-.733,0L12.2,8.545h1.088a.732.732,0,0,0,.732-.732V2.392ZM12.555,5.4V7.08H11.333a1.106,1.106,0,0,0-.782,1.887l2.9,2.9a1.982,1.982,0,0,0,2.805,0l2.9-2.9a1.106,1.106,0,0,0-.782-1.887H17.143V5.408l6.061.01a.283.283,0,0,1,.282.283v9.924a.8.8,0,0,1-.839.85H8.028L6.3,5.389ZM9.806,22.306a1.229,1.229,0,1,1-1.229-1.229A1.23,1.23,0,0,1,9.806,22.306Zm11.768,0a1.229,1.229,0,1,1-1.229-1.229,1.23,1.23,0,0,1,1.229,1.229Z" transform="translate(50 182)" fill="#fff"/>
  </g>
</svg>
