<svg xmlns="http://www.w3.org/2000/svg" width="22.5" height="15" viewBox="0 0 22.5 15">
  <path id="Vector" d="M9.8,7.509v.443a26.982,26.982,0,0,0,.3,4.314,12.568,12.568,0,0,0,.325,1.33,2.375,2.375,0,0,0,1.013,1.131A2.5,2.5,0,0,0,12.575,15a5,5,0,0,0,1.187-.3l.313-.117a27.851,27.851,0,0,0,7.363-5.03l.112-.113.475-.525A2.289,2.289,0,0,0,22.5,7.49a2.223,2.223,0,0,0-.437-1.33,4.6,4.6,0,0,0-.35-.418l-.475-.5A28.056,28.056,0,0,0,14.25.51,6.243,6.243,0,0,0,12.575,0H12.5a2.274,2.274,0,0,0-2,1.239,5.125,5.125,0,0,0-.3.98l-.137.68A34.253,34.253,0,0,0,9.8,7.509ZM1.875,5.6a1.9,1.9,0,0,0,0,3.794L6.5,8.988a1.488,1.488,0,0,0,0-2.976Z" fill="#fff"/>
</svg>
