<svg xmlns="http://www.w3.org/2000/svg" width="15" height="10" viewBox="0 0 15 10">
  <g id="icon" transform="translate(-317 -732)">
    <path id="Vector" d="M6.529,5.006v.3a18.564,18.564,0,0,0,.2,2.876,8.165,8.165,0,0,0,.217.887,1.571,1.571,0,0,0,.674.754A1.667,1.667,0,0,0,8.382,10a3.376,3.376,0,0,0,.8-.2l.2-.078A18.4,18.4,0,0,0,14.29,6.367l.073-.075.325-.35A1.547,1.547,0,0,0,15,4.994a1.473,1.473,0,0,0-.289-.887,2.985,2.985,0,0,0-.233-.278L14.162,3.5A18.87,18.87,0,0,0,9.5.34,4.193,4.193,0,0,0,8.382,0H8.334A1.512,1.512,0,0,0,7,.826a3.237,3.237,0,0,0-.194.653l-.095.453A22.745,22.745,0,0,0,6.529,5.006ZM1.253,3.735a1.265,1.265,0,0,0,0,2.53l3.083-.273a.992.992,0,0,0,0-1.985Z" transform="translate(317 732)"/>
  </g>
</svg>
