<svg xmlns="http://www.w3.org/2000/svg" width="25" height="14.034" viewBox="0 0 25 14.034">
  <g id="icon" transform="translate(-50 -441)">
    <g id="Group">
      <path id="Vector" d="M21.2,6.426h-.291a4.667,4.667,0,0,1-2.98-1.078L12.173.561A2.423,2.423,0,0,0,8.2,2.423v.566a2,2,0,0,1-3.81.845l-.159-.342A2.219,2.219,0,0,0,0,4.429v5.8a3.808,3.808,0,0,0,3.8,3.8H21.2a3.8,3.8,0,0,0,0-7.607Zm0,6.143H3.8A2.34,2.34,0,0,1,1.77,11.383H23.23A2.34,2.34,0,0,1,21.2,12.569ZM1.465,9.918V4.429A.754.754,0,0,1,2.9,4.111l.159.342a3.464,3.464,0,0,0,6.6-1.464V2.423a.958.958,0,0,1,1.571-.736l1.411,1.175L11.04,4.469,12.075,5.5l1.7-1.7.636.53L12.879,5.867,13.915,6.9l1.63-1.63.636.53L14.719,7.265,15.754,8.3l1.568-1.568a6.136,6.136,0,0,0,3.583,1.158H21.2a2.342,2.342,0,0,1,2.317,2.027Z" transform="translate(50 441)" fill="#fff"/>
    </g>
  </g>
</svg>
