<svg xmlns="http://www.w3.org/2000/svg" width="11.58" height="11" viewBox="0 0 11.58 11">
  <path id="Vector" d="M9.216,6.843a.637.637,0,0,0-.185.562l.515,2.848a.625.625,0,0,1-.26.625.637.637,0,0,1-.677.046L6.044,9.587a.655.655,0,0,0-.289-.076H5.6a.47.47,0,0,0-.156.052L2.877,10.907a.676.676,0,0,1-.411.064.643.643,0,0,1-.515-.736l.515-2.848a.648.648,0,0,0-.185-.567L.19,4.793a.625.625,0,0,1-.156-.654.65.65,0,0,1,.515-.434l2.877-.417a.644.644,0,0,0,.509-.353L5.2.336A.6.6,0,0,1,5.32.179L5.372.139A.389.389,0,0,1,5.465.064L5.528.041,5.626,0H5.87a.648.648,0,0,1,.509.347L7.664,2.935a.643.643,0,0,0,.481.353l2.877.417a.656.656,0,0,1,.527.434.629.629,0,0,1-.168.654Z" fill="#ffab07"/>
</svg>
