<svg xmlns="http://www.w3.org/2000/svg" width="108.426" height="13" viewBox="0 0 108.426 13">
  <g id="star" transform="translate(-25 -537)">
    <path id="Vector" d="M10.891,8.087a.753.753,0,0,0-.218.664l.608,3.366a.739.739,0,0,1-.308.739.753.753,0,0,1-.8.055l-3.03-1.58a.774.774,0,0,0-.342-.09H6.615a.555.555,0,0,0-.185.062L3.4,12.89a.8.8,0,0,1-.486.075A.76.76,0,0,1,2.3,12.1l.609-3.366a.766.766,0,0,0-.218-.67L.225,5.665a.739.739,0,0,1-.184-.773.768.768,0,0,1,.608-.513l3.4-.493a.761.761,0,0,0,.6-.417L6.15.4A.712.712,0,0,1,6.287.212L6.348.164a.459.459,0,0,1,.11-.089L6.533.048,6.649,0h.288a.765.765,0,0,1,.6.41L9.058,3.469a.76.76,0,0,0,.568.417l3.4.493a.776.776,0,0,1,.623.513.743.743,0,0,1-.2.773Z" transform="translate(25 537)" fill="#ffab07"/>
    <path id="Vector-2" data-name="Vector" d="M10.891,8.087a.753.753,0,0,0-.218.664l.608,3.366a.739.739,0,0,1-.308.739.753.753,0,0,1-.8.055l-3.03-1.58a.774.774,0,0,0-.342-.09H6.615a.555.555,0,0,0-.185.062L3.4,12.89a.8.8,0,0,1-.486.075A.76.76,0,0,1,2.3,12.1l.609-3.366a.766.766,0,0,0-.218-.67L.225,5.665a.739.739,0,0,1-.184-.773.768.768,0,0,1,.608-.513l3.4-.493a.761.761,0,0,0,.6-.417L6.15.4A.712.712,0,0,1,6.287.212L6.348.164a.459.459,0,0,1,.11-.089L6.533.048,6.649,0h.288a.765.765,0,0,1,.6.41L9.058,3.469a.76.76,0,0,0,.568.417l3.4.493a.776.776,0,0,1,.623.513.743.743,0,0,1-.2.773Z" transform="translate(48.685 537)" fill="#ffab07"/>
    <path id="Vector-3" data-name="Vector" d="M10.891,8.087a.753.753,0,0,0-.218.664l.608,3.366a.739.739,0,0,1-.308.739.753.753,0,0,1-.8.055l-3.03-1.58a.774.774,0,0,0-.342-.09H6.615a.555.555,0,0,0-.185.062L3.4,12.89a.8.8,0,0,1-.486.075A.76.76,0,0,1,2.3,12.1l.609-3.366a.766.766,0,0,0-.218-.67L.225,5.665a.739.739,0,0,1-.184-.773.768.768,0,0,1,.608-.513l3.4-.493a.761.761,0,0,0,.6-.417L6.15.4A.712.712,0,0,1,6.287.212L6.348.164a.459.459,0,0,1,.11-.089L6.533.048,6.649,0h.288a.765.765,0,0,1,.6.41L9.058,3.469a.76.76,0,0,0,.568.417l3.4.493a.776.776,0,0,1,.623.513.743.743,0,0,1-.2.773Z" transform="translate(72.37 537)" fill="#ffab07"/>
    <path id="Vector-4" data-name="Vector" d="M10.891,8.087a.753.753,0,0,0-.218.664l.608,3.366a.739.739,0,0,1-.308.739.753.753,0,0,1-.8.055l-3.03-1.58a.774.774,0,0,0-.342-.09H6.615a.555.555,0,0,0-.185.062L3.4,12.89a.8.8,0,0,1-.486.075A.76.76,0,0,1,2.3,12.1l.609-3.366a.766.766,0,0,0-.218-.67L.225,5.665a.739.739,0,0,1-.184-.773.768.768,0,0,1,.608-.513l3.4-.493a.761.761,0,0,0,.6-.417L6.15.4A.712.712,0,0,1,6.287.212L6.348.164a.459.459,0,0,1,.11-.089L6.533.048,6.649,0h.288a.765.765,0,0,1,.6.41L9.058,3.469a.76.76,0,0,0,.568.417l3.4.493a.776.776,0,0,1,.623.513.743.743,0,0,1-.2.773Z" transform="translate(96.055 537)" fill="#ffab07"/>
    <path id="Vector-5" data-name="Vector" d="M10.891,8.087a.753.753,0,0,0-.218.664l.608,3.366a.739.739,0,0,1-.308.739.753.753,0,0,1-.8.055l-3.03-1.58a.774.774,0,0,0-.342-.09H6.615a.555.555,0,0,0-.185.062L3.4,12.89a.8.8,0,0,1-.486.075A.76.76,0,0,1,2.3,12.1l.609-3.366a.766.766,0,0,0-.218-.67L.225,5.665a.739.739,0,0,1-.184-.773.768.768,0,0,1,.608-.513l3.4-.493a.761.761,0,0,0,.6-.417L6.15.4A.712.712,0,0,1,6.287.212L6.348.164a.459.459,0,0,1,.11-.089L6.533.048,6.649,0h.288a.765.765,0,0,1,.6.41L9.058,3.469a.76.76,0,0,0,.568.417l3.4.493a.776.776,0,0,1,.623.513.743.743,0,0,1-.2.773Z" transform="translate(119.74 537)" fill="#ffab07"/>
  </g>
</svg>
